<svg width="51" height="33" viewBox="0 0 51 33" fill="none" xmlns="http://www.w3.org/2000/svg">
<path d="M39.9111 33C38.239 33 36.7135 32.7438 35.3348 32.2315C33.956 31.689 32.7826 30.9507 31.8145 30.0164C30.8464 29.0521 30.0837 27.8918 29.5263 26.5356C28.9983 25.1795 28.7343 23.6726 28.7343 22.0151C28.7343 20.2973 29.0276 18.5041 29.6143 16.6356C30.2304 14.7671 31.1104 12.8836 32.2545 10.9849C33.3986 9.0863 34.7774 7.21781 36.3909 5.37945C38.0336 3.51096 39.8965 1.71781 41.9793 0L47.0397 4.06849C46.0716 5.09315 45.1915 6.0726 44.3995 7.00685C43.6368 7.9411 42.9327 8.87534 42.2873 9.80959C41.6419 10.7438 41.0406 11.7082 40.4832 12.7027C39.9551 13.6973 39.4711 14.7521 39.0311 15.8671L51 22.0151C51 23.6425 50.692 25.1342 50.0759 26.4904C49.4892 27.8466 48.6972 29.0068 47.6997 29.9712C46.7023 30.9356 45.5289 31.689 44.1795 32.2315C42.83 32.7438 41.4072 33 39.9111 33ZM11.1769 33C9.50475 33 7.97929 32.7438 6.60052 32.2315C5.22174 31.689 4.04832 30.9507 3.08024 30.0164C2.11217 29.0521 1.34944 27.8918 0.792062 26.5356C0.264021 25.1795 0 23.6726 0 22.0151C0 20.2973 0.293356 18.5041 0.880069 16.6356C1.49612 14.7671 2.37619 12.8836 3.52028 10.9849C4.66437 9.0863 6.04314 7.21781 7.6566 5.37945C9.2994 3.51096 11.1622 1.71781 13.245 0L18.3054 4.06849C17.3374 5.09315 16.4573 6.0726 15.6652 7.00685C14.9025 7.9411 14.1984 8.87534 13.5531 9.80959C12.9077 10.7438 12.3063 11.7082 11.7489 12.7027C11.2209 13.6973 10.7368 14.7521 10.2968 15.8671L22.2657 22.0151C22.2657 23.6425 21.9577 25.1342 21.3417 26.4904C20.755 27.8466 19.9629 29.0068 18.9655 29.9712C17.9681 30.9356 16.7947 31.689 15.4452 32.2315C14.0958 32.7438 12.673 33 11.1769 33Z" fill="#242424"/>
</svg>
