<svg width="23" height="8" viewBox="0 0 23 8" fill="none" xmlns="http://www.w3.org/2000/svg">
<path fill-rule="evenodd" clip-rule="evenodd" d="M-1.74846e-07 4C-1.79997e-07 3.88214 0.0526758 3.76911 0.14644 3.68577C0.240205 3.60244 0.367377 3.55562 0.49998 3.55562L21.2922 3.55562L18.1453 0.759566C18.0514 0.676123 17.9987 0.56295 17.9987 0.444943C17.9987 0.326937 18.0514 0.213764 18.1453 0.130321C18.2392 0.0468778 18.3665 2.37912e-07 18.4993 2.29782e-07C18.6321 2.21653e-07 18.7594 0.0468777 18.8533 0.130321L22.8531 3.68538C22.8997 3.72666 22.9366 3.77569 22.9618 3.82968C22.987 3.88367 23 3.94155 23 4C23 4.05845 22.987 4.11633 22.9618 4.17032C22.9366 4.2243 22.8997 4.27334 22.8531 4.31462L18.8533 7.86968C18.7594 7.95312 18.6321 8 18.4993 8C18.3665 8 18.2392 7.95312 18.1453 7.86968C18.0514 7.78624 17.9987 7.67306 17.9987 7.55506C17.9987 7.43705 18.0514 7.32388 18.1453 7.24043L21.2922 4.44438L0.49998 4.44438C0.367377 4.44438 0.240205 4.39756 0.14644 4.31423C0.0526758 4.23089 -1.69694e-07 4.11786 -1.74846e-07 4Z" fill="#242424" fill-opacity="0.8"/>
</svg>
