<svg width="64" height="64" viewBox="0 0 64 64" fill="none" xmlns="http://www.w3.org/2000/svg">
<path d="M64 47.2533V16.7467C64 7.49774 56.5023 0 47.2533 0L16.7467 0C7.49774 0 0 7.49774 0 16.7467V47.2533C0 56.5023 7.49774 64 16.7467 64H47.2533C56.5023 64 64 56.5023 64 47.2533Z" fill="white"/>
<path d="M52 27.0237C52 24.8073 51.0756 22.6817 49.4302 21.1144C47.7848 19.5472 45.5532 18.6667 43.2262 18.6667H20.7738C18.4468 18.6667 16.2152 19.5472 14.5698 21.1144C12.9244 22.6817 12 24.8073 12 27.0237V36.9765C12 39.1929 12.9244 41.3185 14.5698 42.8857C16.2152 44.453 18.4468 45.3334 20.7738 45.3334H43.2262C45.5532 45.3334 47.7848 44.453 49.4302 42.8857C51.0756 41.3185 52 39.1929 52 36.9765V27.0237ZM38.8088 32.8271L28.7555 37.6149C28.3595 37.818 27.019 37.6149 27.019 37.0926V27.2558C27.019 26.8205 28.3595 26.5594 28.7555 26.7625L38.5347 31.8115C38.8088 31.9856 39.2353 32.5369 38.8088 32.74V32.8271Z" fill="#242424"/>
</svg>
