<svg width="64" height="64" viewBox="0 0 64 64" fill="none" xmlns="http://www.w3.org/2000/svg">
<path d="M64 47.2533V16.7467C64 7.49774 56.5023 0 47.2533 0L16.7467 0C7.49774 0 0 7.49774 0 16.7467V47.2533C0 56.5023 7.49774 64 16.7467 64H47.2533C56.5023 64 64 56.5023 64 47.2533Z" fill="white"/>
<path d="M48.6158 21.8109C47.536 22.2608 46.4028 22.5783 45.2424 22.7559C45.7791 22.7559 46.5713 21.6866 46.9035 21.3135C47.4002 20.7229 47.7813 20.0486 48.028 19.3241C48.028 19.3241 48.028 19.3241 48.028 19.15C48.0001 19.1369 47.9696 19.13 47.9386 19.13C47.9076 19.13 47.877 19.1369 47.8491 19.15C46.5833 19.8194 45.235 20.3291 43.8368 20.667C43.799 20.6916 43.7545 20.7047 43.709 20.7047C43.6635 20.7047 43.6191 20.6916 43.5813 20.667C43.4752 20.5387 43.3553 20.422 43.2235 20.3188C42.6499 19.8235 41.9929 19.4281 41.2812 19.15C40.3317 18.7829 39.3113 18.6217 38.2912 18.6776C37.3084 18.7549 36.352 19.0257 35.48 19.4733C34.5911 19.9041 33.8069 20.5145 33.18 21.2638C32.5391 22.0469 32.0773 22.9541 31.8255 23.9246C31.6468 24.8533 31.6468 25.8061 31.8255 26.7347C31.8255 26.8839 31.8255 26.9088 31.8255 26.8839C26.429 26.3971 21.4236 23.9351 17.8208 19.9955C17.6419 19.7966 17.5652 19.7966 17.4374 19.9955C16.7186 21.2791 16.4447 22.7542 16.6565 24.2014C16.8683 25.6486 17.5545 26.9906 18.613 28.0278C18.8941 28.2765 19.1752 28.5252 19.4819 28.749C18.5881 28.6822 17.7181 28.4367 16.9263 28.0278C16.7474 28.0278 16.6707 28.0278 16.6452 28.177C16.6196 28.3262 16.6452 28.6495 16.6452 28.9479C16.7875 30.1674 17.2633 31.3273 18.0229 32.307C18.7825 33.2868 19.7982 34.0504 20.9642 34.5183C21.2386 34.6502 21.5313 34.7423 21.8331 34.7918C20.9856 34.9105 20.125 34.9105 19.2775 34.7918C19.0986 34.7918 19.0219 34.7918 19.0986 35.0157C19.5398 36.1462 20.2681 37.1496 21.2155 37.9323C22.1628 38.715 23.2985 39.2515 24.5165 39.4919C24.7628 39.466 25.0113 39.466 25.2576 39.4919C24.6442 40.412 22.4975 41.0834 21.5008 41.4315C19.6848 42.0653 17.7498 42.3113 15.8274 42.1527C15.5207 42.1527 15.4441 42.1527 15.3674 42.1527C15.2907 42.1527 15.3674 42.1527 15.3674 42.3516L16.5685 43.0231C17.7701 43.6459 19.0385 44.1379 20.3508 44.4903C23.7403 45.4883 27.3397 45.6025 30.7887 44.8212C34.2377 44.04 37.4153 42.3909 40.0034 40.0389C41.8681 38.0737 43.3102 35.7656 44.245 33.2502C45.1798 30.7349 45.5884 28.0631 45.4469 25.3918C45.4469 25.1929 45.7024 25.0686 45.8557 24.9691C46.838 24.1907 47.6988 23.2776 48.4114 22.2585C48.531 22.1097 48.5942 21.9252 48.5902 21.7363C48.5902 21.7363 48.7436 21.7363 48.6158 21.8109Z" fill="#242424"/>
</svg>
