<svg width="64" height="64" viewBox="0 0 64 64" fill="none" xmlns="http://www.w3.org/2000/svg">
<path d="M64 47.2533V16.7467C64 7.49774 56.5023 0 47.2533 0L16.7467 0C7.49774 0 0 7.49774 0 16.7467V47.2533C0 56.5023 7.49774 64 16.7467 64H47.2533C56.5023 64 64 56.5023 64 47.2533Z" fill="white"/>
<path d="M39.2407 33.8605L40.105 28.9698H34.6908V25.7985C34.6529 25.4343 34.7103 25.0674 34.8587 24.725C35.0071 24.3826 35.2427 24.0733 35.548 23.8202C35.8534 23.5672 36.2207 23.3767 36.6228 23.2629C37.0249 23.1491 37.4514 23.1149 37.8709 23.1629H40.3334V19.005C38.8883 18.7982 37.4274 18.6851 35.9628 18.6667C31.4945 18.6667 28.5591 21.0064 28.5591 25.2488V28.9698H23.6667V33.8605H28.5591V45.3334H34.6908V33.8605H39.2407Z" fill="#242424"/>
</svg>
