<svg width="64" height="64" viewBox="0 0 64 64" fill="none" xmlns="http://www.w3.org/2000/svg">
<path d="M64 47.2533V16.7467C64 7.49774 56.5023 0 47.2533 0L16.7467 0C7.49774 0 0 7.49774 0 16.7467V47.2533C0 56.5023 7.49774 64 16.7467 64H47.2533C56.5023 64 64 56.5023 64 47.2533Z" fill="white"/>
<path fill-rule="evenodd" clip-rule="evenodd" d="M17.5103 30.1466C26.0107 26.3833 31.679 23.9023 34.5152 22.7036C42.6129 19.2811 44.2956 18.6866 45.3923 18.667C45.6335 18.6626 46.1728 18.7234 46.5222 19.0114C46.8172 19.2547 46.8984 19.5832 46.9372 19.8138C46.976 20.0445 47.0244 20.5698 46.986 20.9803C46.5471 25.6654 44.6484 37.035 43.6824 42.2825C43.2736 44.5029 42.4688 45.2473 41.6896 45.3202C39.9963 45.4785 38.7105 44.1831 37.0704 43.0906C34.5041 41.3812 33.0542 40.3171 30.5631 38.649C27.6842 36.7212 29.5505 35.6617 31.1912 33.9301C31.6205 33.4769 39.0813 26.5812 39.2257 25.9557C39.2438 25.8774 39.2606 25.5858 39.0901 25.4318C38.9196 25.2778 38.6679 25.3305 38.4863 25.3724C38.2289 25.4317 34.1291 28.1853 26.1869 33.633C25.0232 34.445 23.9691 34.8407 23.0247 34.8199C21.9836 34.7971 19.9809 34.2218 18.4921 33.73C16.666 33.1268 15.2147 32.8079 15.341 31.7836C15.4069 31.25 16.13 30.7043 17.5103 30.1466Z" fill="#242424"/>
</svg>
