<svg width="64" height="64" viewBox="0 0 64 64" fill="none" xmlns="http://www.w3.org/2000/svg">
<rect width="64" height="64" rx="17" fill="white"/>
<path d="M12 52.047L14.8331 41.7641C13.0798 38.7572 12.1585 35.3361 12.1585 31.846C12.1684 20.9026 21.1135 12 32.1092 12C37.4485 12 42.4511 14.0704 46.2154 17.8168C49.9796 21.5632 52.05 26.5518 52.05 31.8559C52.05 42.7993 43.095 51.702 32.1092 51.702H32.0993C28.761 51.702 25.4821 50.8639 22.5697 49.2865L12 52.047Z" fill="#242424"/>
<path fill-rule="evenodd" clip-rule="evenodd" d="M26.9478 23.2391C26.5615 22.3814 26.1554 22.3616 25.7888 22.3518C25.4917 22.3419 25.1449 22.3419 24.7982 22.3419C24.4515 22.3419 23.8968 22.4701 23.4213 22.9828C22.9458 23.4954 21.6184 24.7376 21.6184 27.2714C21.6184 29.7953 23.4708 32.2403 23.7284 32.5854C23.9859 32.9304 27.3045 38.2838 32.5447 40.3443C36.9034 42.0598 37.7949 41.7147 38.736 41.626C39.6771 41.5373 41.787 40.3838 42.2229 39.181C42.6489 37.9782 42.6489 36.9529 42.5201 36.736C42.3913 36.5191 42.0446 36.3909 41.5295 36.1346C41.0144 35.8782 38.4784 34.636 38.003 34.4586C37.5275 34.291 37.1808 34.2022 36.8439 34.7149C36.4972 35.2276 35.5066 36.3811 35.2095 36.7261C34.9123 37.0712 34.6052 37.1106 34.0901 36.8543C33.575 36.5979 31.9108 36.0557 29.9395 34.3008C28.404 32.9403 27.3639 31.2544 27.0667 30.7417C26.7695 30.2291 27.037 29.953 27.2946 29.6967C27.5224 29.4699 27.8097 29.0953 28.0672 28.7995C28.3248 28.5038 28.4139 28.2869 28.5823 27.9418C28.7507 27.5967 28.6715 27.301 28.5427 27.0446C28.4139 26.7982 27.4035 24.2546 26.9478 23.2391Z" fill="white"/>
</svg>
