<svg width="18" height="18" viewBox="0 0 18 18" fill="none" xmlns="http://www.w3.org/2000/svg">
<path fill-rule="evenodd" clip-rule="evenodd" d="M16.3953 1.6046C16.5348 1.74408 16.5348 1.97021 16.3953 2.10968L8.53821 9.96682C8.39874 10.1063 8.17261 10.1063 8.03313 9.96682C7.89366 9.82734 7.89366 9.60121 8.03313 9.46174L15.8903 1.6046C16.0297 1.46513 16.2559 1.46513 16.3953 1.6046Z" fill="#232323"/>
<path fill-rule="evenodd" clip-rule="evenodd" d="M16.3954 1.60461C16.4924 1.70163 16.5253 1.84564 16.4799 1.97513L11.4799 16.2608C11.4316 16.3991 11.3037 16.4937 11.1574 16.4997C11.0111 16.5057 10.876 16.4217 10.8165 16.2879L8.01514 9.98486L1.7121 7.18351C1.57828 7.12404 1.49433 6.9889 1.5003 6.84259C1.50627 6.69628 1.60095 6.56843 1.73916 6.52006L16.0249 1.52006C16.1544 1.47474 16.2984 1.5076 16.3954 1.60461ZM2.82538 6.89665L8.43076 9.38793C8.51156 9.42384 8.57616 9.48844 8.61207 9.56924L11.1033 15.1746L15.5607 2.43928L2.82538 6.89665Z" fill="#232323"/>
</svg>
