<svg width="32" height="32" viewBox="0 0 32 32" fill="none" xmlns="http://www.w3.org/2000/svg">
<path d="M10.7429 26.5911C9.47419 26.5334 8.78499 26.3223 8.32659 26.1435C7.71918 25.907 7.28614 25.6255 6.83027 25.1703C6.3744 24.715 6.09225 24.282 5.85702 23.6746C5.67823 23.2162 5.46709 22.527 5.4094 21.2583C5.34599 19.8869 5.33331 19.4754 5.33331 16.0009C5.33331 12.5264 5.34726 12.1155 5.40876 10.7428C5.46646 9.47413 5.67886 8.7862 5.85639 8.32653C6.09289 7.71912 6.37503 7.28608 6.82963 6.82957C7.28487 6.37434 7.71791 6.09156 8.32595 5.85633C8.78436 5.67753 9.47355 5.4664 10.7423 5.4087C12.1143 5.34593 12.5264 5.33325 15.9997 5.33325C19.4742 5.33325 19.885 5.3472 21.2577 5.4087C22.5264 5.4664 23.2143 5.6788 23.674 5.85633C24.2814 6.09156 24.7145 6.37434 25.1703 6.82957C25.6262 7.28481 25.9071 7.71849 26.1436 8.32589C26.3224 8.7843 26.5335 9.47349 26.5912 10.7422C26.654 12.1149 26.6666 12.5257 26.6666 16.0002C26.6666 19.4735 26.654 19.8856 26.5912 21.2583C26.5335 22.527 26.3211 23.2162 26.1436 23.6746C25.9071 24.282 25.6256 24.715 25.1703 25.1703C24.7151 25.6255 24.2814 25.907 23.674 26.1435C23.2156 26.3223 22.5264 26.5334 21.2577 26.5911C19.8863 26.6539 19.4742 26.6666 15.9997 26.6666C12.5264 26.6666 12.1143 26.6545 10.7429 26.5911Z" fill="#232323"/>
<path d="M13.7783 15.9999C13.7783 14.7727 14.7729 13.7775 16.0002 13.7775C17.2275 13.7775 18.2227 14.7727 18.2227 15.9999C18.2227 17.2272 17.2275 18.2223 16.0002 18.2223C14.7729 18.2223 13.7783 17.2272 13.7783 15.9999ZM12.5769 15.9999C12.5769 17.8906 14.1095 19.4232 16.0002 19.4232C17.891 19.4232 19.4236 17.8906 19.4236 15.9999C19.4236 14.1093 17.891 12.5767 16.0002 12.5767C14.1095 12.5767 12.5769 14.1091 12.5769 15.9999M18.7592 12.4409C18.7591 12.5992 18.806 12.7538 18.8938 12.8854C18.9817 13.017 19.1066 13.1196 19.2528 13.1802C19.3989 13.2408 19.5598 13.2567 19.715 13.2259C19.8702 13.1951 20.0128 13.119 20.1247 13.0072C20.2366 12.8953 20.3129 12.7528 20.3438 12.5976C20.3747 12.4425 20.359 12.2816 20.2985 12.1354C20.238 11.9892 20.1355 11.8642 20.004 11.7763C19.8724 11.6883 19.7178 11.6413 19.5595 11.6413H19.5592C19.3471 11.6414 19.1437 11.7256 18.9937 11.8756C18.8437 12.0255 18.7594 12.2288 18.7592 12.4409ZM13.3068 21.4265C12.6568 21.3969 12.3035 21.2886 12.0687 21.1971C11.7575 21.076 11.5354 20.9317 11.3019 20.6985C11.0684 20.4653 10.9238 20.2434 10.8032 19.9322C10.7117 19.6975 10.6034 19.3441 10.5738 18.6942C10.5415 17.9914 10.5351 17.7803 10.5351 16C10.5351 14.2197 10.5421 14.0092 10.5738 13.3059C10.6034 12.6559 10.7125 12.3032 10.8032 12.0679C10.9244 11.7566 11.0687 11.5345 11.3019 11.301C11.5351 11.0675 11.7569 10.923 12.0687 10.8024C12.3034 10.7109 12.6568 10.6026 13.3068 10.573C14.0096 10.5407 14.2207 10.5343 16.0002 10.5343C17.7798 10.5343 17.9912 10.5411 18.6945 10.5731C19.3445 10.6027 19.6972 10.7118 19.9326 10.8025C20.2438 10.9231 20.4659 11.068 20.6994 11.3011C20.9329 11.5343 21.0769 11.7567 21.1981 12.068C21.2896 12.3026 21.3979 12.656 21.4274 13.306C21.4598 14.0093 21.4662 14.2198 21.4662 16.0001C21.4662 17.7805 21.4598 17.991 21.4274 18.6943C21.3978 19.3442 21.289 19.6975 21.1981 19.9323C21.0769 20.2435 20.9326 20.4656 20.6994 20.6986C20.4662 20.9315 20.2438 21.0761 19.9326 21.1973C19.6979 21.2888 19.3445 21.397 18.6945 21.4266C17.9917 21.4589 17.7806 21.4654 16.0002 21.4654C14.2199 21.4654 14.0093 21.4589 13.3068 21.4266M13.2516 9.37363C12.5419 9.40595 12.0569 9.51848 11.6334 9.68328C11.195 9.85347 10.8234 10.0818 10.4523 10.4522C10.0813 10.8227 9.85355 11.1943 9.68335 11.6332C9.51855 12.057 9.40601 12.5417 9.37369 13.2514C9.34083 13.9622 9.33331 14.1895 9.33331 15.9999C9.33331 17.8104 9.34083 18.0376 9.37369 18.7485C9.40601 19.4582 9.51855 19.9429 9.68335 20.3666C9.85355 20.805 10.0813 21.1773 10.4523 21.5476C10.8233 21.9179 11.1945 22.1459 11.6334 22.3166C12.0577 22.4814 12.5419 22.5939 13.2516 22.6262C13.9628 22.6585 14.1897 22.6666 16.0002 22.6666C17.8108 22.6666 18.038 22.6591 18.7489 22.6262C19.4587 22.5939 19.9433 22.4814 20.3671 22.3166C20.8055 22.1459 21.1771 21.9181 21.5481 21.5476C21.9192 21.1771 22.1465 20.805 22.3171 20.3666C22.4819 19.9429 22.595 19.4582 22.6268 18.7485C22.6591 18.0371 22.6666 17.8104 22.6666 15.9999C22.6666 14.1895 22.6591 13.9622 22.6268 13.2514C22.5945 12.5416 22.4819 12.0567 22.3171 11.6332C22.1465 11.1949 21.9186 10.8233 21.5481 10.4522C21.1777 10.0812 20.8055 9.85347 20.3677 9.68328C19.9433 9.51848 19.4586 9.40541 18.7494 9.37363C18.0385 9.34115 17.8113 9.33325 16.001 9.33325C14.1908 9.33325 13.9631 9.34077 13.2519 9.37363" fill="white"/>
</svg>
