<svg width="52" height="64" viewBox="0 0 52 64" fill="none" xmlns="http://www.w3.org/2000/svg">
<path fill-rule="evenodd" clip-rule="evenodd" d="M52 11.5764H0V64.0001H52V11.5764ZM1.44444 62.5439V13.0326H50.5556V62.5439H1.44444ZM46.2918 43.2616C46.3503 43.3261 46.3952 43.4022 46.4238 43.485C46.4583 43.5694 46.4748 43.6602 46.4722 43.7515C46.4697 43.8429 46.4481 43.9326 46.4089 44.0149C46.3698 44.0971 46.3139 44.1699 46.245 44.2285C46.1762 44.2872 46.0959 44.3302 46.0095 44.3549C45.7335 44.4383 45.4597 44.5231 45.1866 44.6076C44.2939 44.8841 43.4097 45.1579 42.4876 45.3699L42.1163 45.4554C41.0426 45.703 39.9926 45.9452 38.9009 46.1344C38.3053 46.2266 37.6967 46.3057 37.1011 46.3716C36.4914 46.457 35.8777 46.5098 35.2625 46.5298C34.0313 46.5955 32.7969 46.5558 31.5723 46.4112C30.9533 46.3465 30.3391 46.2408 29.7336 46.0948C29.4229 46.0157 29.1251 45.9235 28.8273 45.818C28.5202 45.7329 28.2177 45.6317 27.9209 45.5149L27.0663 45.1194C26.9857 45.0747 26.905 45.0309 26.8247 44.9874C26.6213 44.8771 26.4196 44.7677 26.2247 44.6449C25.9525 44.4739 25.6889 44.2891 25.4348 44.0913C25.1715 43.8925 24.9247 43.6721 24.6968 43.4323C24.2189 42.9833 23.8049 42.4687 23.4667 41.9033C23.104 41.3489 22.8001 40.7568 22.5603 40.137C22.4406 39.8244 22.3453 39.5027 22.2755 39.1748C22.2065 38.9341 22.16 38.6857 22.1132 38.4355C22.0986 38.3572 22.0837 38.2778 22.0683 38.1994C21.9561 37.5513 21.9084 36.8933 21.9259 36.2354C21.9282 35.5826 21.9758 34.9307 22.0683 34.2846L22.1331 33.9683L17.5882 35.6291L12.15 52.4481C12.1324 52.5077 12.1032 52.563 12.064 52.6108C12.0249 52.6586 11.9767 52.6979 11.9222 52.7262C11.8678 52.7545 11.8083 52.7713 11.7473 52.7756C11.6863 52.7799 11.6251 52.7716 11.5673 52.7512C11.5108 52.7347 11.458 52.7067 11.4122 52.6691C11.3665 52.6314 11.3286 52.5847 11.3008 52.5319C11.273 52.4791 11.256 52.4211 11.2506 52.3614C11.2452 52.3017 11.2517 52.2416 11.2695 52.1845L15.5683 36.3672L7.92892 39.1484L5.74068 45.6071C5.72743 45.6783 5.69956 45.7458 5.65888 45.8053C5.6182 45.8647 5.56565 45.9148 5.50464 45.9521C5.44364 45.9894 5.37558 46.0132 5.30492 46.0219C5.23426 46.0305 5.16259 46.0239 5.09463 46.0024C5.02667 45.9809 4.96395 45.945 4.91056 45.8971C4.85718 45.8492 4.81434 45.7903 4.78487 45.7244C4.75539 45.6584 4.73995 45.5869 4.73954 45.5144C4.73914 45.442 4.75378 45.3702 4.78251 45.304L6.2586 39.7416L4.8861 40.2425C4.73811 40.2782 4.58244 40.2586 4.44745 40.1873C4.31246 40.1159 4.20713 39.9976 4.15064 39.8539C4.09416 39.7101 4.09028 39.5505 4.13971 39.4041C4.18914 39.2577 4.2886 39.1342 4.41997 39.0562L6.72474 38.0281L11.6839 19.8383C11.7808 19.4851 12.0103 19.1848 12.3228 19.0023C12.6353 18.8199 13.0057 18.7698 13.3542 18.8629C13.5317 18.9017 13.6993 18.9781 13.8459 19.0871C13.9926 19.1961 14.1151 19.3354 14.2054 19.4957C14.2958 19.6561 14.352 19.834 14.3704 20.0179C14.3889 20.2018 14.3691 20.3876 14.3124 20.5632V20.6423L8.69285 37.2636L16.3841 33.7838L21.4597 15.159C21.5925 14.8539 21.8292 14.6078 22.1261 14.4662C22.423 14.3247 22.7601 14.2971 23.0754 14.3886C23.3907 14.48 23.663 14.6844 23.8419 14.9641C24.0209 15.2437 24.0946 15.5798 24.0494 15.9103L18.6112 32.7161L22.6898 30.8839C22.8178 30.8263 22.9528 30.7864 23.0912 30.7653L23.1689 30.5544C23.3939 29.9528 23.6489 29.3633 23.9328 28.7882C24.2177 28.2346 24.5155 27.681 24.8781 27.0878C25.2131 26.5384 25.5807 26.0102 25.9787 25.5061C26.7657 24.4543 27.6743 23.5029 28.6848 22.6722C28.875 22.5001 29.0738 22.3543 29.2953 22.1919L29.2965 22.191L29.3861 22.1252L29.4488 22.079C29.5912 21.9736 29.7272 21.8846 29.8631 21.7956C29.999 21.7067 30.135 21.6177 30.2774 21.5123C30.8291 21.1515 31.4095 20.8384 32.0125 20.5764C32.6284 20.2899 33.2702 20.0647 33.9288 19.9042C34.2701 19.8149 34.6159 19.7445 34.9647 19.6933C35.3119 19.6407 35.6625 19.6143 36.0135 19.6142C36.3753 19.5816 36.7393 19.5816 37.1011 19.6142C37.4705 19.6566 37.8348 19.7361 38.1888 19.8514C38.5555 19.9369 38.9085 20.0745 39.2376 20.2601C39.5726 20.4384 39.8892 20.6503 40.1828 20.8927C40.4789 21.1394 40.7481 21.4178 40.9856 21.7231C41.2173 22.0092 41.413 22.3236 41.5682 22.659C41.7333 22.976 41.8594 23.3124 41.9437 23.6608L42.0603 24.1748V24.4516V24.7021C42.0866 24.7886 42.096 24.8796 42.0878 24.9698C42.0796 25.06 42.054 25.1477 42.0126 25.2279C41.9711 25.3081 41.9145 25.3791 41.846 25.4371C41.7776 25.495 41.6986 25.5386 41.6136 25.5654C41.5285 25.5922 41.4392 25.6018 41.3505 25.5934C41.2619 25.5851 41.1757 25.5591 41.097 25.5168C41.0182 25.4746 40.9484 25.417 40.8915 25.3473C40.8346 25.2776 40.7918 25.1972 40.7655 25.1107L40.7007 25.0316L40.5842 24.8602L40.3252 24.5175C40.1612 24.3165 39.9838 24.1271 39.7943 23.9507C39.4772 23.6045 39.1051 23.3149 38.6937 23.094C38.284 22.8735 37.8491 22.7053 37.3989 22.5931L36.6997 22.4613C36.4626 22.4474 36.2248 22.4474 35.9876 22.4613C35.7376 22.4412 35.4865 22.4412 35.2366 22.4613C35.0035 22.5272 34.7316 22.5931 34.4986 22.5931L33.7217 22.804C33.4729 22.8811 33.2304 22.9781 32.9966 23.094C31.9814 23.5108 31.0239 24.0602 30.148 24.7284C29.2579 25.421 28.4342 26.1977 27.6878 27.0483L26.639 28.3664C26.3153 28.8409 26.0046 29.3022 25.7197 29.8163C25.4244 30.3149 25.1564 30.8298 24.9169 31.3585L24.7486 31.7671C24.7486 31.7671 24.6191 32.0834 24.4508 32.5447V32.6766C24.2152 33.3158 24.0121 33.9669 23.8422 34.6274C23.7258 35.1884 23.6436 35.7563 23.5962 36.3277C23.538 36.8841 23.538 37.4453 23.5962 38.0017C23.6496 38.5638 23.7537 39.1197 23.9069 39.6625C24.0694 40.2004 24.3001 40.7144 24.5932 41.1915C24.6882 41.3752 24.8041 41.5519 24.9153 41.7214C24.9557 41.783 24.9955 41.8436 25.0334 41.9033C25.2003 42.1266 25.382 42.338 25.5773 42.5359L26.1988 43.1291C26.4059 43.3004 26.6261 43.4718 26.8721 43.6432C27.0504 43.7673 27.2287 43.8707 27.3971 43.9684C27.4611 44.0055 27.5236 44.0418 27.5842 44.0781L28.3611 44.4604C28.646 44.5922 28.879 44.6845 29.1639 44.7899L29.9926 45.0403C30.5552 45.1887 31.1259 45.3031 31.7017 45.3831C32.8658 45.5261 34.0395 45.5702 35.2107 45.5149C36.3919 45.4467 37.5681 45.3058 38.7326 45.0931C39.9109 44.8822 41.0633 44.6449 42.2027 44.2758L42.3791 44.2187C43.4571 43.8698 44.514 43.5277 45.5822 43.1027C45.6619 43.0691 45.7474 43.0523 45.8337 43.0535C45.9199 43.0546 46.005 43.0737 46.0838 43.1095C46.1626 43.1453 46.2333 43.197 46.2918 43.2616ZM21.4932 54.3074C21.4932 54.3074 21.4552 54.3074 21.3982 54.2682H21.2208H21.0181C20.9764 54.2785 20.933 54.2785 20.8914 54.2682C21.1172 53.9317 21.3143 53.5758 21.4805 53.2043C21.5692 52.9628 21.5629 52.7931 21.4805 52.6886L21.4045 52.7539H21.3475C21.2698 52.785 21.1955 52.8244 21.1258 52.8714C21.0736 52.9077 21.0242 52.9418 20.9778 52.9738C20.8163 53.0853 20.6899 53.1725 20.6063 53.2434C20.5067 53.3234 20.3842 53.367 20.2579 53.3675C20.2349 53.369 20.212 53.3628 20.1926 53.3499C20.1732 53.337 20.1583 53.3179 20.1502 53.2957C20.1382 53.2464 20.1382 53.1948 20.1502 53.1455C20.1827 52.9815 20.2382 52.8231 20.3149 52.6756C20.3973 52.4993 20.4923 52.3166 20.5937 52.1273C20.695 51.938 20.7837 51.7552 20.866 51.579C20.9447 51.43 21.0003 51.2692 21.0307 51.1025C21.0624 50.9178 21.0426 50.7277 20.9737 50.5542C20.9582 50.4786 20.9186 50.4106 20.8612 50.3609C20.8038 50.3112 20.7319 50.2827 20.657 50.28C20.61 50.286 20.5658 50.3065 20.5303 50.3388L20.3403 50.4889C20.1566 50.6586 19.9158 50.8871 19.6308 51.1808C19.4454 51.3718 19.2332 51.5601 19.0221 51.7474C18.9088 51.848 18.7953 51.9487 18.6869 52.0489C18.4715 52.2317 18.2562 52.4014 18.0534 52.5515C17.8507 52.7017 17.648 52.8453 17.4643 52.9562C17.3104 53.0593 17.1495 53.1509 16.9829 53.2304C16.8896 53.2864 16.7861 53.3219 16.6788 53.3348C16.6603 53.3376 16.6415 53.3363 16.6236 53.3311C16.6056 53.3259 16.5889 53.3168 16.5746 53.3045C16.5602 53.2922 16.5486 53.2769 16.5403 53.2596C16.5321 53.2423 16.5275 53.2235 16.5268 53.2043C16.5077 53.1228 16.5077 53.0377 16.5268 52.9562C16.5878 52.7256 16.6818 52.5057 16.8055 52.3035C16.9702 52.0163 17.1476 51.716 17.3503 51.4027C17.553 51.0894 17.7557 50.8022 17.9838 50.5281C18.1091 50.3774 18.2019 50.2504 18.279 50.1449C18.3422 50.0584 18.3948 49.9864 18.4462 49.9276C18.4462 49.9276 18.4462 49.8884 18.4779 49.8427C18.4866 49.7887 18.4866 49.7335 18.4779 49.6795C18.4569 49.6147 18.4315 49.5514 18.4018 49.4902C18.3685 49.4348 18.328 49.3843 18.2815 49.3401C18.2684 49.3212 18.2513 49.3055 18.2316 49.2942C18.2119 49.2829 18.19 49.2763 18.1675 49.2748C18.0474 49.2895 17.9346 49.3419 17.8444 49.4249C17.6967 49.5385 17.5608 49.6676 17.439 49.8101C17.2753 49.9891 17.1229 50.1787 16.9829 50.3779C16.896 50.4961 16.8092 50.6181 16.7234 50.7388C16.653 50.8377 16.5825 50.9367 16.5141 51.0307C16.2544 51.4615 16.0137 51.8988 15.7983 52.3361C15.6214 52.6679 15.4913 53.024 15.4119 53.3936C15.3925 53.4824 15.4061 53.5755 15.4499 53.6547C15.4907 53.746 15.5514 53.8264 15.6273 53.8896C15.7065 53.9574 15.7938 54.0144 15.887 54.0594C15.9738 54.1037 16.0689 54.1282 16.1657 54.1312C16.3541 54.1075 16.5354 54.043 16.6978 53.9419C16.96 53.7959 17.2138 53.6347 17.458 53.4588C17.724 53.263 18.0091 53.0476 18.3005 52.8061L19.0923 52.1534C19.3331 51.951 19.5358 51.7813 19.7258 51.6377L20.0109 51.3897L20.0425 51.4223C19.9858 51.5008 19.939 51.5863 19.9032 51.6769C19.8516 51.7884 19.8001 51.9129 19.7417 52.0538L19.7005 52.1534C19.6215 52.3337 19.5538 52.519 19.4978 52.7082C19.4396 52.8876 19.3931 53.0708 19.3584 53.2565C19.314 53.5111 19.3584 53.6808 19.4281 53.7722C19.4751 53.8185 19.5308 53.8546 19.5918 53.8782C19.6528 53.9017 19.7178 53.9123 19.7828 53.9092C20.0092 53.9108 20.2305 53.8401 20.4163 53.7069C20.6063 53.5698 20.8027 53.4393 20.9864 53.3283C20.8724 53.5241 20.7837 53.6742 20.714 53.7787C20.6893 53.8157 20.6598 53.8609 20.6256 53.9135C20.5632 54.0091 20.4849 54.1294 20.3909 54.2682C19.9392 54.3175 19.4936 54.4137 19.0607 54.5554C18.636 54.6891 18.2279 54.8731 17.8444 55.1037C17.4964 55.3078 17.1873 55.5754 16.9322 55.8935C16.7014 56.1723 16.5559 56.5153 16.5141 56.8792C16.5141 57.1794 16.5141 57.3818 16.6852 57.4862C16.8354 57.5972 17.0216 57.644 17.2046 57.6167C17.4884 57.5633 17.7636 57.4688 18.0218 57.3361C18.3644 57.151 18.689 56.9324 18.991 56.6833C19.3471 56.3965 19.6798 56.08 19.9855 55.7369C20.3225 55.3621 20.6217 54.9532 20.8787 54.5163H21.0117H21.2208H21.4235C21.4628 54.5048 21.5045 54.5048 21.5439 54.5163C21.7339 54.5163 21.8352 54.4641 21.8543 54.3596C21.8677 54.2856 21.7571 54.2935 21.6375 54.3021C21.5882 54.3057 21.5375 54.3093 21.4932 54.3074ZM19.9348 54.7317C19.9022 54.7691 19.8745 54.8108 19.8525 54.8557C19.6297 55.1565 19.3908 55.4441 19.1367 55.7173C18.877 55.998 18.6236 56.2525 18.3765 56.4745C18.1559 56.6724 17.9231 56.8555 17.6797 57.0228C17.5297 57.1388 17.3567 57.219 17.1729 57.2577C17.0462 57.2577 16.9765 57.2577 16.9575 57.2121C16.948 57.1581 16.948 57.1028 16.9575 57.0489C16.9693 56.7671 17.0693 56.4969 17.2426 56.2786C17.448 55.9964 17.6936 55.7477 17.9711 55.5411C18.2872 55.306 18.627 55.1069 18.9846 54.9471C19.3334 54.7912 19.6993 54.6794 20.0742 54.6142C20.0338 54.6551 19.9866 54.6883 19.9348 54.7121V54.7317ZM46.9207 49.0203H47.022C47.9469 49.0203 48.327 49.4903 48.1749 50.4302C48.1168 50.705 48.0094 50.9662 47.8582 51.2004C47.687 51.4863 47.4987 51.761 47.2944 52.0229C47.2442 52.0793 47.1948 52.1353 47.1461 52.1905C46.9919 52.3652 46.8449 52.5318 46.7053 52.6756C46.5911 52.7983 46.4659 52.9098 46.3315 53.0085V53.1129L46.5659 53.0085L46.908 52.8714L47.2437 52.7409C47.3314 52.7123 47.4163 52.6751 47.4971 52.6299C47.5344 52.6017 47.578 52.5837 47.6238 52.5777C47.6872 52.5777 47.6872 52.6168 47.6872 52.6821C47.6595 52.7705 47.6007 52.845 47.5225 52.891C47.3609 53.004 47.1938 53.1086 47.022 53.2043C46.7057 53.3934 46.3801 53.5656 46.0465 53.72C45.6582 53.9028 45.2606 54.064 44.8556 54.203C44.4933 54.3364 44.1126 54.4092 43.728 54.4184H43.2592C43.1 54.4199 42.941 54.4068 42.7841 54.3792L40.9787 56.605C40.4848 57.2097 40.0098 57.7755 39.5624 58.3084L39.5574 58.3143L39.3554 58.5549L39.1734 58.7721C38.6159 59.4379 38.1345 59.9927 37.7291 60.4235C37.3236 60.8543 37.1083 61.0763 36.9942 61.0763C36.8802 61.0763 36.7915 60.9849 36.7218 60.8021C36.6505 60.5924 36.6373 60.3664 36.6838 60.1494C36.8145 59.582 37.0281 59.0384 37.3173 58.5371C37.6829 57.8255 38.0956 57.1407 38.5526 56.4876C39.0467 55.7565 39.5851 55.0189 40.2186 54.2617C40.1077 54.3095 39.99 54.3382 39.8702 54.3466C39.6421 54.3466 39.5724 54.1508 39.6421 53.7461C39.69 53.4965 39.771 53.2549 39.8828 53.0281C40.0032 52.7539 40.1426 52.4732 40.2883 52.1926C40.434 51.9119 40.5733 51.6312 40.7 51.3505C40.8154 51.1086 40.8985 50.8517 40.9471 50.5868C40.9724 50.4302 40.9344 50.3519 40.8204 50.3519C40.5118 50.4196 40.2244 50.5654 39.9842 50.7761C39.5445 51.0965 39.1216 51.4408 38.7173 51.8075C38.3372 52.1534 37.9698 52.5059 37.6277 52.8714C37.3228 53.1884 37.0392 53.5265 36.7789 53.8832C36.7567 53.9115 36.7259 53.9315 36.6915 53.9397C36.657 53.948 36.6209 53.9442 36.5888 53.9288C36.5 53.8951 36.4183 53.8441 36.3481 53.7787C36.2717 53.7144 36.2091 53.6344 36.1644 53.5437C36.1425 53.5075 36.1309 53.4657 36.1309 53.423C36.1309 53.3803 36.1425 53.3385 36.1644 53.3022C36.262 53.1322 36.3699 52.9687 36.4875 52.8127L36.9942 52.1077C37.1716 51.8531 37.3616 51.5855 37.558 51.3179C37.5961 51.2661 37.6334 51.2157 37.6701 51.1662C37.8227 50.9603 37.9637 50.77 38.0965 50.5542C38.1796 50.4191 38.2547 50.299 38.3225 50.1905C38.389 50.0841 38.4486 49.9887 38.5019 49.9015C38.5794 49.7891 38.6412 49.666 38.6856 49.5359C38.7109 49.3728 38.6476 49.2944 38.4956 49.2944C38.167 49.3283 37.8516 49.4449 37.577 49.6339C37.1403 49.8955 36.7174 50.1809 36.3101 50.4889C35.854 50.8218 35.3979 51.1939 34.9291 51.5855C34.4604 51.9772 34.036 52.3427 33.6622 52.6821L32.712 53.5307C32.5873 53.6584 32.4516 53.7741 32.3066 53.8766C32.2651 53.8688 32.226 53.8509 32.1926 53.8244C32.1301 53.7859 32.0708 53.7423 32.0152 53.6939C31.9543 53.6463 31.899 53.5915 31.8505 53.5307C31.8287 53.5133 31.8118 53.4902 31.8018 53.4637C31.7918 53.4373 31.7889 53.4085 31.7935 53.3805C31.8506 53.2467 31.9252 53.1215 32.0152 53.0085L32.3826 52.4863L32.2496 52.5907L31.8378 52.8975C31.7241 52.9849 31.6057 53.0656 31.4831 53.139C31.2867 53.25 31.0523 53.3805 30.7736 53.5241C30.53 53.6598 30.2586 53.7336 29.9818 53.7395C29.8293 53.7443 29.6798 53.6961 29.5573 53.6025C29.4916 53.5365 29.4424 53.4552 29.4137 53.3654C29.385 53.2757 29.3778 53.1801 29.3926 53.0868C29.4156 52.8074 29.4955 52.536 29.627 52.2905C29.778 51.9799 29.9473 51.6791 30.1338 51.3897L30.1781 51.3179H29.9691C29.737 51.3043 29.5044 51.3043 29.2723 51.3179H28.5565H28.2714L27.5809 52.2252C27.3721 52.5179 27.1825 52.7623 27.0086 52.9866C26.9187 53.1024 26.8331 53.2129 26.7511 53.3218L26.2633 53.9745C26.2184 53.9651 26.1754 53.9475 26.1366 53.9223C26.0699 53.8842 26.0064 53.8405 25.9466 53.7918C25.8777 53.7446 25.814 53.6899 25.7565 53.6286C25.733 53.6117 25.7139 53.5893 25.7006 53.5631C25.6874 53.537 25.6805 53.5079 25.6805 53.4785C25.7719 53.308 25.8779 53.1464 25.9972 52.9954C26.2 52.7082 26.4597 52.3688 26.7701 51.9641C26.9031 51.8075 27.0235 51.6508 27.1438 51.4941C26.8968 51.7096 26.5674 51.9772 26.3013 52.1926C26.0961 52.3587 25.8532 52.5287 25.6133 52.6966C25.5422 52.7464 25.4713 52.7961 25.4018 52.8453C25.1139 53.0525 24.8157 53.2442 24.5086 53.4197C24.2334 53.5784 23.9451 53.7117 23.6471 53.8179C23.401 53.9089 23.142 53.9574 22.8806 53.9615C22.703 53.9817 22.5233 53.9552 22.3583 53.8845C22.1933 53.8137 22.0483 53.7011 21.937 53.5571C21.8257 53.413 21.7516 53.2423 21.7216 53.0607C21.6917 52.8792 21.7068 52.6928 21.7657 52.5189C21.8659 51.9521 22.0818 51.4137 22.3992 50.9393C23.0328 49.9717 23.8493 49.1459 24.8 48.5112C25.0787 48.3041 25.4031 48.1718 25.7439 48.126C25.8123 48.1217 25.8808 48.1342 25.9436 48.1626C26.0064 48.1909 26.0617 48.2344 26.1049 48.2892C26.1838 48.3882 26.2731 48.4779 26.371 48.5568C26.477 48.6367 26.5869 48.7108 26.7004 48.7788C26.763 48.8186 26.8111 48.8785 26.8374 48.9492C26.8637 49.02 26.8668 49.0977 26.8461 49.1704C26.769 49.4398 26.6003 49.6715 26.371 49.8231C26.0579 50.0659 25.7275 50.284 25.3828 50.4759C25.006 50.6796 24.6191 50.8627 24.2235 51.0242C23.8991 51.1582 23.5669 51.2715 23.229 51.3636C23.0692 51.5932 22.9272 51.8354 22.8046 52.0881C22.6975 52.2935 22.6186 52.5132 22.5702 52.7409C22.5232 52.9239 22.5482 53.1186 22.6399 53.2826C22.6815 53.3478 22.7392 53.4004 22.8072 53.4348C22.8751 53.4692 22.9508 53.4843 23.0263 53.4785C23.2422 53.475 23.4562 53.4353 23.6598 53.361C23.9118 53.2728 24.1556 53.1613 24.3882 53.0281C24.648 52.8845 24.9077 52.7213 25.1801 52.5385C25.4525 52.3558 25.7185 52.1599 25.9909 51.9511L26.6244 51.4615H26.58C26.3457 51.3897 26.314 51.2918 26.3457 51.0829C26.3773 50.874 26.447 50.8284 26.561 50.874C26.6107 50.8919 26.6531 50.9263 26.6814 50.972C26.6948 50.9926 26.7127 51.0098 26.7335 51.0222C26.7544 51.0346 26.7777 51.042 26.8018 51.0438C26.9143 51.0701 27.0312 51.0701 27.1438 51.0438L27.4162 50.8022C27.7724 50.4897 28.1108 50.1562 28.4298 49.8036C28.465 49.7932 28.5023 49.7932 28.5374 49.8036C28.6599 49.6556 28.7803 49.512 28.8985 49.3728C29.1882 49.0292 29.4449 48.7439 29.6605 48.5044L29.76 48.3937C29.9944 48.1326 30.1401 48.0085 30.1971 48.0085C30.242 48.0088 30.2862 48.0202 30.3259 48.0418C30.3656 48.0633 30.3997 48.0945 30.4252 48.1326C30.4802 48.1986 30.5134 48.2808 30.5202 48.3676C30.4318 48.501 30.3367 48.6295 30.2351 48.7527C30.0943 48.9678 29.9238 49.1829 29.7206 49.4392C29.6586 49.5173 29.5937 49.5992 29.5257 49.6861L28.6325 50.8349H28.8162H29.4496L30.0388 50.8871C30.1735 50.9063 30.3068 50.9347 30.4378 50.972C30.5265 50.848 30.6152 50.7239 30.7039 50.613C30.7668 50.5274 30.8187 50.4501 30.8604 50.388C30.9237 50.2937 30.9635 50.2344 30.9826 50.2344C31.0367 50.1879 31.0804 50.1301 31.111 50.0648C31.1416 49.9995 31.1583 49.9283 31.16 49.8558C31.1825 49.779 31.2122 49.7047 31.2487 49.6339C31.3022 49.536 31.3683 49.446 31.4451 49.3662C31.526 49.282 31.6176 49.2096 31.7175 49.1508C31.8084 49.0977 31.9107 49.0685 32.0152 49.066C32.1342 49.0625 32.2506 49.1017 32.3446 49.1769C32.3813 49.204 32.4117 49.2391 32.4336 49.2797C32.4555 49.3204 32.4684 49.3655 32.4713 49.4119C32.459 49.5503 32.4379 49.6877 32.4079 49.8231C32.3882 49.9654 32.3337 50.1002 32.2496 50.2148C32.2116 50.254 32.1355 50.3323 32.0279 50.4563L31.6541 50.8806C31.5713 50.9698 31.4907 51.0636 31.4097 51.1579C31.3545 51.2222 31.2988 51.2871 31.2424 51.3505L30.9066 51.7422C30.7229 51.9641 30.5519 52.1926 30.3808 52.4341C30.2439 52.591 30.1557 52.7865 30.1275 52.9954C30.1105 53.044 30.1105 53.097 30.1275 53.1456C30.1425 53.1711 30.164 53.1919 30.1897 53.2057C30.2154 53.2195 30.2442 53.2258 30.2732 53.2239C30.4716 53.2075 30.6651 53.1521 30.8433 53.0607C31.0903 52.9429 31.3313 52.8122 31.5654 52.6691C31.7998 52.5255 32.0215 52.3753 32.2306 52.2317C32.3946 52.128 32.5512 52.0124 32.6993 51.8858C32.7133 51.8793 32.7284 51.8759 32.7437 51.8759C32.759 51.8759 32.7741 51.8793 32.788 51.8858C32.921 51.703 33.0604 51.5203 33.2124 51.3244C33.4595 51.0111 33.7002 50.7174 33.9219 50.4628L34.0439 50.3226C34.2143 50.1263 34.3647 49.9531 34.4984 49.8101C34.6631 49.6339 34.7708 49.549 34.8278 49.549C34.9716 49.5497 35.1145 49.5717 35.2522 49.6143C35.3979 49.66 35.4549 49.7187 35.4549 49.784C35.4171 49.8629 35.3679 49.9355 35.3092 49.9994L34.9545 50.4498L34.4857 51.0307L33.9916 51.6247L35.1445 50.7631C35.5373 50.4432 35.9744 50.143 36.4114 49.8558C36.8181 49.5863 37.2413 49.3443 37.6784 49.1312C38.0037 48.9619 38.3596 48.8641 38.7236 48.844C38.9146 48.8439 39.1 48.9106 39.2494 49.0333C39.3287 49.096 39.388 49.1817 39.4196 49.2795C39.4512 49.3772 39.4537 49.4824 39.4268 49.5816C39.3821 49.7674 39.3071 49.9439 39.205 50.1038C39.0783 50.3257 38.9326 50.5607 38.7743 50.8088C38.6159 51.0568 38.4576 51.2787 38.2992 51.5006C38.1409 51.7225 38.0268 51.8727 37.9508 51.9641C38.0331 51.8727 38.2042 51.7095 38.4639 51.468C38.7257 51.2287 39.0234 50.9807 39.3571 50.7239C39.6866 50.4793 40.0339 50.261 40.396 50.0712C40.6847 49.8949 41.0109 49.7941 41.3462 49.7775C41.4372 49.7639 41.5302 49.7762 41.615 49.8131C41.6998 49.8498 41.7733 49.9097 41.8276 49.9863C41.91 50.1936 41.9234 50.4232 41.8656 50.6391C41.8126 50.8996 41.7385 51.1551 41.6439 51.4028C41.5299 51.7161 41.4032 52.0294 41.2765 52.3296C41.1653 52.5931 41.0639 52.8214 40.9722 53.0278L40.9344 53.1129C40.8331 53.3414 40.7824 53.4654 40.7824 53.4654C40.7759 53.4889 40.7759 53.5137 40.7824 53.5372C41.2131 53.0411 41.6629 52.5581 42.1127 52.1012C42.7348 51.4795 43.3949 50.8995 44.0891 50.3649C44.6507 49.9106 45.2712 49.5393 45.9325 49.2618C46.2213 48.8834 46.4799 48.5908 46.7053 48.3358C46.7716 48.2609 46.8349 48.1892 46.8953 48.1195L47.3894 47.5451C47.4971 47.4341 47.6111 47.3297 47.7252 47.2318C47.8197 47.1438 47.9401 47.0909 48.0672 47.0817C48.1686 47.0817 48.1686 47.1208 48.1686 47.1861C48.078 47.3988 47.9609 47.5985 47.8202 47.7801C47.5921 48.1065 47.2944 48.5177 46.9207 49.0203ZM24.9394 49.4576C24.7412 49.6151 24.5509 49.7828 24.3692 49.9602C24.2444 50.0803 24.1195 50.2173 23.9911 50.3582C23.924 50.4318 23.8559 50.5065 23.7864 50.5803C24.0408 50.5228 24.289 50.4397 24.5276 50.3323C24.7944 50.2196 25.0545 50.091 25.3068 49.9472C25.5264 49.8292 25.738 49.6962 25.9402 49.549C26.1113 49.425 26.2126 49.3336 26.2126 49.2749C26.2196 49.2402 26.2198 49.2045 26.2133 49.1698C26.2068 49.135 26.1936 49.102 26.1746 49.0725C26.1303 48.9876 26.0226 48.9876 25.8452 48.9876C25.7088 48.9975 25.5765 49.04 25.4588 49.1117C25.2775 49.2135 25.1039 49.3291 24.9394 49.4576ZM41.1941 55.1886L42.309 53.7526C42.8411 53.0803 43.3796 52.4014 43.937 51.7226L45.4764 49.8231C44.8659 50.1665 44.2926 50.5756 43.766 51.0438C43.1348 51.5937 42.5321 52.1777 41.9606 52.7931C41.6946 53.0803 41.4348 53.3675 41.1815 53.6612L41.1434 53.7069C41.0009 53.8905 40.8434 54.0759 40.6837 54.2638L40.6828 54.2649C40.5306 54.444 40.3764 54.6255 40.2313 54.81C39.6801 55.528 39.1797 56.1808 38.7363 56.8335C38.3423 57.3988 37.9807 57.9873 37.653 58.5959C37.4292 58.9792 37.2626 59.3951 37.1589 59.8295C37.1418 59.9202 37.1291 60.0117 37.1209 60.1037C37.1083 60.182 37.1336 60.2277 37.1906 60.2277C37.2845 60.1369 37.3713 60.0387 37.4503 59.934L38.0838 59.1507L38.9833 58.0215C39.3217 57.5953 39.6663 57.15 40.0354 56.6729L40.0475 56.6573C40.4213 56.1742 40.8014 55.6847 41.1941 55.1886ZM47.136 51.3375C47.345 51.0091 47.4873 50.6405 47.5541 50.254H47.5605C47.5896 50.1441 47.5927 50.0287 47.5695 49.9174C47.5464 49.8061 47.4977 49.7022 47.4274 49.6143C47.3514 49.5406 47.2618 49.4835 47.1638 49.4465C47.0658 49.4094 46.9615 49.3933 46.8573 49.3989C46.79 49.3901 46.7219 49.3901 46.6546 49.3989L45.128 51.3571C44.5768 52.0751 44.0131 52.7931 43.4493 53.498L43.3289 53.6482L43.2149 53.7918L43.7027 53.7069C43.8927 53.6743 44.0827 53.6286 44.2664 53.5829C44.4501 53.5372 44.6275 53.4915 44.7922 53.4393C44.9203 53.4016 45.0452 53.3536 45.166 53.2957C45.3525 53.1805 45.5323 53.054 45.7044 52.9171C45.9656 52.7197 46.2113 52.5015 46.4392 52.2644C46.6983 51.9778 46.9315 51.6675 47.136 51.3375Z" fill="#242424"/>
<path d="M7.09031 8.65765H6.23018L5.47465 6.74972H1.61566L0.860136 8.65765H0L3.12671 0.892822H3.9636L7.09031 8.65765ZM3.54516 1.85788L1.90625 6.01761H5.18406L3.54516 1.85788Z" fill="#242424"/>
<path d="M9.59962 5.77357L12.7147 8.65765H11.6918L8.78597 5.98433V8.65765H8.01883V3.11135H8.78597V5.56281L11.5524 3.11135H12.5985L9.59962 5.77357Z" fill="#242424"/>
<path d="M18.1816 4.19842V3.11135H18.9488V8.65765H18.1816V7.57057C17.647 8.38403 16.8643 8.79076 15.8337 8.79076C15.0046 8.79076 14.2955 8.50975 13.7066 7.94772C13.1254 7.3857 12.8348 6.69796 12.8348 5.8845C12.8348 5.07104 13.1254 4.3833 13.7066 3.82127C14.2955 3.25925 15.0046 2.97823 15.8337 2.97823C16.8643 2.97823 17.647 3.38496 18.1816 4.19842ZM14.2645 7.44856C14.7062 7.87008 15.2486 8.08084 15.8918 8.08084C16.535 8.08084 17.0774 7.87008 17.5191 7.44856C17.9608 7.01225 18.1816 6.49089 18.1816 5.8845C18.1816 5.27071 17.9608 4.75305 17.5191 4.33153C17.0774 3.90262 16.535 3.68816 15.8918 3.68816C15.2486 3.68816 14.7062 3.90262 14.2645 4.33153C13.8228 4.75305 13.602 5.27071 13.602 5.8845C13.602 6.49089 13.8228 7.01225 14.2645 7.44856Z" fill="#242424"/>
<path d="M25.4549 3.11135V7.94772H26.2686V10.1441H25.5014V8.65765H20.759V10.1441H19.9919V7.94772H20.7009C21.0961 7.44486 21.2937 6.74602 21.2937 5.85122V3.11135H25.4549ZM21.6308 7.94772H24.6878V3.82127H22.0609V5.85122C22.0609 6.70905 21.9175 7.40788 21.6308 7.94772Z" fill="#242424"/>
<path d="M29.8871 2.97823C30.755 2.97823 31.4485 3.27034 31.9677 3.85455C32.5024 4.43137 32.7697 5.11541 32.7697 5.90668C32.7697 5.94366 32.762 6.05828 32.7465 6.25055H27.6438C27.7213 6.80519 27.9692 7.24889 28.3877 7.58167C28.8061 7.91445 29.3292 8.08084 29.9568 8.08084C30.8402 8.08084 31.464 7.76655 31.8282 7.13796L32.5024 7.51511C32.2467 7.91445 31.8941 8.22874 31.4446 8.45798C31.0029 8.67984 30.5031 8.79076 29.9452 8.79076C29.0308 8.79076 28.2869 8.51714 27.7135 7.96991C27.1401 7.42267 26.8534 6.72754 26.8534 5.8845C26.8534 5.04885 27.1362 4.35741 27.7019 3.81018C28.2676 3.25555 28.996 2.97823 29.8871 2.97823ZM29.8871 3.68816C29.2827 3.68816 28.7751 3.85825 28.3644 4.19842C27.9615 4.53859 27.7213 4.986 27.6438 5.54063H31.9793C31.8941 4.94902 31.6577 4.49422 31.2703 4.17624C30.8673 3.85085 30.4063 3.68816 29.8871 3.68816Z" fill="#242424"/>
<path d="M38.8021 3.11135H39.6855V8.65765H38.9183V4.2317L36.8842 7.382H36.7913L34.7571 4.2317V8.65765H33.99V3.11135H34.8734L36.8377 6.15072L38.8021 3.11135Z" fill="#242424"/>
<path d="M42.0786 7.382L45.5424 3.11135H46.1933V8.65765H45.4261V4.387L41.9623 8.65765H41.3114V3.11135H42.0786V7.382Z" fill="#242424"/>
<path d="M49.6404 3.11135H52V8.65765H51.2329V6.52787H50.2332L48.4432 8.65765H47.4669L49.3034 6.50568C48.8307 6.43913 48.4432 6.25425 48.141 5.95105C47.8466 5.64046 47.6993 5.26701 47.6993 4.8307C47.6993 4.33523 47.8853 3.9248 48.2572 3.59942C48.6447 3.27404 49.1058 3.11135 49.6404 3.11135ZM49.6404 5.84013H51.2329V3.82127H49.6404C49.3072 3.82127 49.0283 3.91741 48.8036 4.10968C48.5788 4.29456 48.4665 4.5349 48.4665 4.8307C48.4665 5.1265 48.5788 5.37054 48.8036 5.56281C49.0283 5.74769 49.3072 5.84013 49.6404 5.84013Z" fill="#242424"/>
</svg>
