<svg width="32" height="32" viewBox="0 0 32 32" fill="none" xmlns="http://www.w3.org/2000/svg">
<path fill-rule="evenodd" clip-rule="evenodd" d="M4.40822 14.5171C11.2086 11.5065 15.7432 9.5217 18.0121 8.56275C24.4903 5.82474 25.8364 5.34912 26.7138 5.33342C26.9068 5.32997 27.3383 5.37856 27.6178 5.60901C27.8538 5.80359 27.9187 6.06645 27.9498 6.25093C27.9808 6.43542 28.0195 6.85569 27.9888 7.18407C27.6377 10.9322 26.1187 20.0279 25.3459 24.2258C25.0189 26.0021 24.375 26.5977 23.7517 26.656C22.397 26.7827 21.3684 25.7463 20.0563 24.8724C18.0032 23.5048 16.8434 22.6535 14.8505 21.319C12.5474 19.7768 14.0404 18.9292 15.3529 17.5439C15.6964 17.1814 21.6651 11.6648 21.7806 11.1644C21.795 11.1018 21.8084 10.8685 21.672 10.7453C21.5356 10.6221 21.3343 10.6642 21.1891 10.6977C20.9831 10.7452 17.7033 12.9481 11.3495 17.3063C10.4185 17.9559 9.57529 18.2724 8.81977 18.2558C7.98687 18.2375 6.3847 17.7773 5.19366 17.3839C3.73279 16.9013 2.57172 16.6462 2.67282 15.8267C2.72548 15.3999 3.30395 14.9633 4.40822 14.5171Z" fill="#232323"/>
</svg>
