<svg width="32" height="32" viewBox="0 0 32 32" fill="none" xmlns="http://www.w3.org/2000/svg">
<path d="M4.41833 27.5838L6.0573 21.6351C5.04298 19.8956 4.51003 17.9165 4.51003 15.8975C4.51576 9.5667 9.69054 4.4165 16.0516 4.4165C19.1404 4.4165 22.0344 5.61422 24.212 7.78152C26.3897 9.94882 27.5874 12.8348 27.5874 15.9032C27.5874 22.234 22.4069 27.3842 16.0516 27.3842H16.0458C14.1146 27.3842 12.2178 26.8994 10.5329 25.9869L4.41833 27.5838Z" fill="#232323"/>
<path fill-rule="evenodd" clip-rule="evenodd" d="M13.0658 10.9184C12.8423 10.4222 12.6073 10.4108 12.3953 10.4051C12.2234 10.3994 12.0228 10.3994 11.8222 10.3994C11.6216 10.3994 11.3007 10.4736 11.0256 10.7701C10.7506 11.0667 9.98267 11.7853 9.98267 13.2511C9.98267 14.7112 11.0543 16.1257 11.2033 16.3253C11.3523 16.5249 13.2721 19.6218 16.3036 20.8139C18.8251 21.8063 19.3408 21.6066 19.8852 21.5553C20.4297 21.504 21.6503 20.8367 21.9024 20.1409C22.1488 19.445 22.1488 18.8519 22.0743 18.7264C21.9998 18.6009 21.7993 18.5268 21.5013 18.3785C21.2033 18.2302 19.7362 17.5116 19.4612 17.4089C19.1861 17.312 18.9855 17.2606 18.7907 17.5572C18.5901 17.8538 18.017 18.5211 17.8451 18.7207C17.6732 18.9203 17.4956 18.9431 17.1976 18.7949C16.8996 18.6466 15.9368 18.3329 14.7964 17.3177C13.9082 16.5306 13.3064 15.5553 13.1345 15.2587C12.9626 14.9622 13.1173 14.8025 13.2663 14.6542C13.3981 14.523 13.5643 14.3063 13.7133 14.1352C13.8623 13.9641 13.9139 13.8386 14.0113 13.639C14.1087 13.4393 14.0629 13.2682 13.9884 13.1199C13.9139 12.9774 13.3294 11.5059 13.0658 10.9184Z" fill="white"/>
</svg>
