<svg width="32" height="32" viewBox="0 0 32 32" fill="none" xmlns="http://www.w3.org/2000/svg">
<path d="M32 12.0188C32 10.2457 31.2605 8.54518 29.9442 7.2914C28.6278 6.03762 26.8425 5.33325 24.981 5.33325H7.01904C5.15747 5.33325 3.37215 6.03762 2.05583 7.2914C0.739504 8.54518 0 10.2457 0 12.0188V19.9811C0 21.7542 0.739504 23.4547 2.05583 24.7084C3.37215 25.9622 5.15747 26.6666 7.01904 26.6666H24.981C26.8425 26.6666 28.6278 25.9622 29.9442 24.7084C31.2605 23.4547 32 21.7542 32 19.9811V12.0188ZM21.4471 16.6615L13.4044 20.4918C13.0876 20.6543 12.0152 20.4918 12.0152 20.0739V12.2045C12.0152 11.8563 13.0876 11.6474 13.4044 11.8099L21.2277 15.849C21.4471 15.9883 21.7883 16.4294 21.4471 16.5919V16.6615Z" fill="#232323"/>
</svg>
